<svg xmlns="http://www.w3.org/2000/svg" viewBox="0 0 128 128">
    <path d="M 24 20 C 16.8 20 11 25.8 11 33 L 11 95 C 11 102.2 16.8 108 24 108 L 104 108 C 110.9 108 117 102.4 117 96 L 117 33 C 117 25.8 111.2 20 104 20 L 24 20 z M 24 26 L 104 26 C 107.9 26 111 29.1 111 33 L 111 96 C 111 98.8 107.9 102 104 102 L 24 102 C 20.1 102 17 98.9 17 95 L 17 33 C 17 29.1 20.1 26 24 26 z M 63.703125 36.958984 C 63.237061 36.961377 62.769531 36.975 62.300781 37 C 48.800781 37.8 37.899609 48.699219 37.099609 62.199219 C 36.599609 69.699219 39.200391 76.900391 44.400391 82.400391 C 49.400391 87.900391 56.6 91 64 91 C 65.7 91 67 89.7 67 88 C 67 86.3 65.7 85 64 85 C 58.1 85 52.699219 82.600391 48.699219 78.400391 C 44.699219 74.100391 42.7 68.499219 43 62.699219 C 43.7 52.199219 52.099609 43.699609 62.599609 43.099609 C 68.499609 42.699609 74.100781 44.700781 78.300781 48.800781 C 82.600781 52.800781 84.900391 58.199609 84.900391 64.099609 L 84.900391 66.099609 C 84.900391 68.299609 83.100391 70.099609 80.900391 70.099609 C 78.700391 70.099609 76.900391 68.299609 76.900391 66.099609 L 76.900391 64.099609 C 76.900391 56.899609 71.100391 51.099609 63.900391 51.099609 C 56.700391 51.099609 50.900391 56.899609 50.900391 64.099609 C 50.900391 71.299609 56.700391 77.099609 63.900391 77.099609 C 67.700391 77.099609 71.1 75.400781 73.5 72.800781 C 75.3 74.800781 78.000391 76.099609 80.900391 76.099609 C 86.400391 76.099609 90.900391 71.599609 90.900391 66.099609 L 90.900391 64.099609 C 91.000391 56.599609 87.9 49.400781 82.5 44.300781 C 77.34375 39.425781 70.694092 36.923096 63.703125 36.958984 z M 64 57 C 67.9 57 71 60.1 71 64 C 71 67.9 67.9 71 64 71 C 60.1 71 57 67.9 57 64 C 57 60.1 60.1 57 64 57 z"></path>
</svg>